<svg width="588" height="722" viewBox="0 0 588 722" fill="none" xmlns="http://www.w3.org/2000/svg">
<path d="M164.509 352.34C166.193 369.462 162.899 386.574 164.765 404.075C166.642 421.714 171.888 439.264 174.623 457.272C175.229 461.225 175.747 465.134 176.118 469.067C178.072 489.903 180.994 510.763 184.975 531.546C188.946 552.353 194.006 573.149 199.825 594.088C203.783 608.372 208.081 622.732 212.444 637.184L212.079 636.389C214.456 642.694 216.952 648.821 219.828 654.513C224.72 664.43 231.2 672.376 240.546 679.535L240.085 679.277C242.408 680.809 244.831 682.294 247.296 683.753C252.884 687.052 258.63 690.203 264.425 693.327C268.747 695.656 273.1 697.963 277.453 700.266C278.058 700.587 278.55 701.117 278.815 701.756C279.08 702.396 279.099 703.089 278.857 703.702C278.615 704.315 278.126 704.81 277.495 705.095C276.865 705.38 276.144 705.428 275.483 705.247C270.694 703.932 265.894 702.609 261.095 701.249C255.758 699.734 250.428 698.185 245.065 696.484C245.343 693.652 245.068 691.295 243.411 689.549C242.562 688.657 241.147 687.79 239.823 687.714C238.631 687.647 237.533 688.006 236.474 688.336C236.089 688.455 235.712 688.572 235.342 688.664C235.281 688.627 235.09 688.533 235.032 688.491C234.311 688.6 233.617 688.624 232.952 688.411C231.218 687.854 229.175 687.883 226.981 687.824C226.179 687.799 225.367 687.77 224.535 687.688C219.526 684.732 214.573 681.048 210.194 676.869C208.871 674.93 207.735 673.138 206.574 671.798C205.534 670.598 204.227 669.765 202.814 668.979C202.234 668.291 201.647 667.573 201.089 666.879C197.444 662.33 194.209 657.677 191.165 653.025C190.606 651.33 190.05 649.612 189.426 647.785C189.356 647.615 189.101 647.128 189.044 646.953C188.386 644.393 187.584 641.642 186.491 638.527C185.69 636.247 185.147 633.904 184.624 631.642C183.855 628.308 183.138 625.164 181.735 622.722C180.796 621.085 180.422 619.124 180.052 617.161C179.554 614.525 179.073 611.908 177.238 610.064C176.085 608.909 174.846 607.912 173.698 606.983C171.871 605.505 170.28 604.212 169.642 602.724C168.446 599.935 166.729 597.768 165.221 595.848C163.408 593.543 161.891 591.577 161.973 589.362C161.985 589.026 162.021 588.633 162.064 588.19C162.286 585.847 162.658 582.142 160.275 577.812C159.426 576.27 158.142 574.967 156.891 573.701C155.069 571.851 153.3 570.018 153.04 567.552C153.001 567.183 153.184 566.726 153.352 566.311C153.566 565.782 153.753 565.321 153.422 565.186C152.451 564.788 151.285 564.044 150.017 563.229C149.086 562.63 148.1 561.99 147.098 561.422C144.824 555.475 142.651 549.446 140.606 543.384C139.669 540.606 138.754 537.807 137.869 535.008C138.683 533.26 139.379 531.511 139.803 529.741C140.362 527.448 140.05 524.707 139.696 521.193C139.437 518.609 139.149 515.577 139.179 512.004C139.229 505.387 137.714 498.941 136.245 494.872C135.934 494.015 135.613 493.152 135.269 492.225C133.971 488.699 132.34 484.339 130.181 475.792C128.965 470.961 128.116 466.521 127.476 462.579C127.071 460.142 126.721 457.795 126.423 455.834C126.037 453.275 125.716 451.148 125.384 449.528C124.811 446.714 124.195 443.314 123.575 439.877C122.601 434.456 121.635 429.044 120.828 425.967C120.54 424.862 120.212 423.741 119.858 422.508C118.876 419.083 117.693 414.937 116.659 409.17C115.572 403.091 115.478 399.258 115.721 395.233C115.819 393.586 116.708 392.085 117.626 390.518C118.93 388.294 120.295 385.989 119.557 383.107C119.385 382.433 119.074 381.725 118.748 380.982C118.15 379.623 117.504 378.155 117.593 376.577C117.624 376.028 117.862 375.525 118.095 375.032C118.352 374.49 118.603 373.958 118.571 373.386C118.453 371.248 118.214 369.169 118.005 367.319C117.736 364.941 117.519 362.939 117.671 361.675C117.942 359.423 117.381 357.028 116.82 354.589C116.391 352.728 115.961 350.844 115.906 348.996C115.748 343.714 114.615 336.504 113.102 329.005C112.53 326.173 113.095 323.715 113.84 320.601C114.305 318.652 114.842 316.446 115.232 313.717C115.452 312.162 114.869 310.857 114.332 309.645C113.838 308.526 113.384 307.497 113.636 306.419C113.859 305.472 114.819 304.875 115.732 304.311C116.748 303.683 117.703 303.098 117.523 302.111C117.427 301.585 116.951 300.95 116.388 300.178C116.165 299.873 115.93 299.547 115.698 299.202C115.892 299.222 116.066 299.228 116.198 299.23C117.129 299.241 117.63 298.234 118.126 297.252C118.324 296.859 118.52 296.469 118.741 296.15C119.556 294.982 119.733 292.73 119.745 291.006C119.75 290.277 120.059 289.626 120.421 288.87C120.742 288.199 121.105 287.445 121.339 286.465C121.472 285.907 121.759 285.487 121.999 285.141C122.172 284.89 122.321 284.677 122.366 284.476C122.405 284.302 122.144 284.149 121.851 283.976C121.64 283.852 121.411 283.717 121.265 283.557C120.916 283.174 120.827 282.698 120.96 282.373C121.022 282.224 121.131 282.108 121.24 281.994C121.367 281.86 121.495 281.728 121.547 281.54C121.785 280.672 121.526 279.793 121.26 278.885C120.968 277.886 120.668 276.842 121.009 275.727C121.116 275.375 121.335 275.013 121.548 274.652C121.771 274.276 121.987 273.912 122.06 273.595C122.357 272.309 121.784 271.044 121.263 269.875C120.916 269.097 120.593 268.365 120.562 267.692C120.507 266.466 119.771 265.745 119.228 265.21C118.946 264.933 118.715 264.707 118.66 264.487C118.7 264.294 118.746 264.098 118.793 263.908C118.869 263.736 118.947 263.558 118.944 263.385C118.944 263.371 118.942 263.358 118.942 263.345C119.062 262.919 119.195 262.498 119.337 262.081C119.547 261.475 119.774 260.877 120 260.283C120.85 258.055 121.693 255.879 121.606 253.496C121.588 252.98 121.315 252.443 121.041 251.862C120.705 251.16 120.361 250.443 120.467 249.765C120.719 248.149 121.444 246.582 122.16 245.053C123.233 242.781 124.301 240.459 123.702 238.201C123.505 237.453 123.117 236.701 122.726 235.948C122.509 235.528 122.289 235.106 122.104 234.686C122.527 234.823 122.929 234.917 123.304 235.005C124.076 235.186 124.738 235.342 125.261 235.787C126.497 236.841 128.227 238.076 129.591 238.127C129.962 238.141 130.367 238.215 130.775 238.292C131.798 238.484 132.843 238.679 133.42 237.915C133.808 237.398 134.719 236.071 134.042 235.077C133.894 234.86 133.569 234.7 133.207 234.515C132.558 234.186 131.789 233.794 131.711 232.899C131.698 232.748 131.689 232.585 131.684 232.417C131.661 231.747 131.637 231 131.126 230.657C130.536 230.261 129.807 230.236 128.956 230.208C127.849 230.17 126.532 230.127 125.052 229.245C124.76 229.07 124.687 228.799 124.631 228.595C124.592 228.451 124.56 228.341 124.468 228.318C124.363 228.293 124.134 228.307 123.845 228.327C122.826 228.395 121.044 228.512 121.154 227.079C121.184 226.692 121.324 226.264 121.45 225.88C121.636 225.316 121.79 224.848 121.514 224.747C121.409 224.709 121.295 224.676 121.176 224.646C121.27 224.193 121.366 223.733 121.462 223.264C121.881 222.706 121.965 221.857 122.069 220.803C122.094 220.547 122.122 220.278 122.155 219.999C122.35 219.09 122.545 218.185 122.742 217.284C122.986 216.58 123.325 215.856 123.811 215.091C124.788 213.537 126.218 212.284 127.617 211.073C128.206 210.563 128.791 210.06 129.334 209.545C129.357 209.78 129.393 209.994 129.462 210.165C129.93 211.337 131.099 211.951 132.175 212.514C132.891 212.889 133.566 213.242 133.965 213.724C134.697 214.607 135.691 214.671 136.426 214.718C136.808 214.743 137.12 214.765 137.289 214.892C137.424 214.995 137.466 215.194 137.51 215.399C137.548 215.578 137.589 215.763 137.691 215.892C138.938 217.463 139.832 217.168 141.132 216.744C141.849 216.51 142.691 216.238 143.784 216.215C144.936 216.225 145.259 216.322 145.609 217.096C146.246 216.622 146.883 216.15 147.519 215.68C147.514 215.459 147.188 215.246 146.641 214.933C145.665 214.374 145.479 212.987 145.334 211.91C145.268 211.411 145.209 210.978 145.085 210.72C144.425 209.35 143.197 209.537 142.115 209.704C141.52 209.795 140.969 209.88 140.582 209.693C140.417 209.614 140.233 209.665 140.047 209.717C139.902 209.757 139.755 209.798 139.613 209.78C138.581 209.64 137.923 208.804 137.321 207.981C136.974 207.516 136.642 207.073 136.263 206.799C136.148 206.715 136.028 206.645 135.911 206.578C135.741 206.48 135.579 206.385 135.447 206.255C135.147 205.96 134.996 205.421 134.833 204.833C134.749 204.531 134.661 204.217 134.548 203.915C134.401 203.524 134.014 203.332 133.61 203.13C133.324 202.987 133.03 202.838 132.804 202.612C132.395 202.204 132.334 201.499 132.277 200.846C132.252 200.562 132.227 200.287 132.175 200.051C132.155 199.955 132.091 199.901 131.997 199.876C131.836 198.801 131.67 197.719 131.503 196.698C130.667 191.592 129.97 187.114 132.094 181.009C132.498 179.845 132.69 178.561 132.77 177.253C133.926 173.194 135.112 169.209 136.368 165.116C137.45 164.483 138.421 163.646 139.264 162.607C140.846 160.651 141.571 158.378 142.42 155.811C143.053 153.889 143.778 151.697 144.981 149.327C147.024 145.247 148.958 141.073 150.651 136.289C152.352 131.449 154.168 126.032 155.424 122.056C156.085 119.96 157.565 117.872 158.93 116.034C160.865 113.391 162.612 111.111 161.772 109.048C161.502 108.392 160.908 107.652 160.332 106.932C159.922 106.419 159.523 105.914 159.252 105.459C159.656 104.621 160.067 103.77 160.487 102.91C161.923 101.62 163.71 99.5468 163.555 96.8314C164.001 95.9727 164.447 95.1249 164.9 94.2771C165.868 92.4492 166.826 90.7124 167.826 88.9308C168.151 88.3555 168.477 87.7858 168.808 87.2108C168.811 87.2052 168.815 87.1997 168.818 87.1941C169.498 86.0015 170.183 84.8287 170.861 83.7045C171.153 83.2169 171.455 82.7099 171.753 82.2208C172.51 80.9714 173.268 79.756 174.051 78.5222C174.462 77.8789 174.874 77.2392 175.289 76.6087C175.982 75.541 176.679 74.4948 177.372 73.4842C178.528 71.7795 179.672 70.176 180.872 68.5417C181.067 68.279 181.351 68.0803 181.668 67.9939C181.986 67.9078 182.312 67.9387 182.586 68.0852C182.86 68.2319 183.067 68.4856 183.173 68.7952C183.28 69.1044 183.275 69.4447 183.171 69.749C182.517 71.6367 181.922 73.4763 181.318 75.3975C180.965 76.5426 180.612 77.7172 180.26 78.9064C180.056 79.6123 179.851 80.3238 179.65 81.0387C179.262 82.406 178.898 83.7501 178.534 85.1197C178.392 85.6562 178.246 86.2098 178.109 86.7426C177.796 87.9782 177.473 89.256 177.155 90.5485C177.153 90.5563 177.151 90.5641 177.149 90.5719C177 91.1891 176.855 91.8038 176.71 92.4208C176.253 94.3418 175.836 96.2093 175.405 98.1569C175.183 99.1814 174.967 100.195 174.75 101.229C174.63 101.804 174.511 102.382 174.395 102.953C174.33 103.265 174.263 103.584 174.198 103.902C172.75 111.114 171.517 118.315 170.404 125.591C169.3 132.843 168.333 140.12 167.473 147.399C166.615 154.666 165.864 161.92 165.185 169.216C162.219 201.409 160.869 233.744 159.897 266.229C159.571 279.578 160.007 293.215 160.811 306.948C161.192 313.382 161.658 320.018 162.182 326.516C162.708 333.084 163.288 339.532 163.913 346.151C164.105 348.161 164.303 350.221 164.509 352.34Z" fill="#A7C7EB"/>
<path d="M399.618 255.378C411.021 267.679 417.541 283.052 428.104 295.756C441.225 311.52 458.011 324.689 470.297 340.347C471.042 341.293 471.771 342.218 472.481 343.119C484.582 358.368 496.363 374.156 507.352 390.715C519.071 408.322 529.62 426.73 539.122 445.319C544.892 456.588 550.324 467.899 555.645 479.305L555.48 479.04C559.314 486.673 562.63 494.399 565.604 502.171C570.744 515.626 574.878 529.236 578.415 542.89C579.105 545.558 579.772 548.227 580.417 550.901C580.433 550.935 580.463 551.04 580.477 551.074C581.154 554.499 581.792 558.029 581.931 561.747C582.167 566.795 580.976 571.668 579.48 576.011C579.27 576.629 578.831 577.157 578.247 577.478C577.663 577.801 576.982 577.905 576.341 577.754C575.699 577.603 575.135 577.207 574.748 576.674C574.362 576.142 574.187 575.507 574.24 574.895C574.653 570.447 574.54 566.536 573.413 562.885C572.619 560.186 571.394 557.375 570.046 554.455L570.137 554.717C569.344 553.162 568.546 551.618 567.743 550.082C569.986 548.374 571.515 546.627 571.61 544.38C571.661 543.241 571.274 541.741 570.391 540.89C569.596 540.118 568.564 539.716 567.584 539.342C566.557 538.947 565.581 538.575 564.985 537.836C563.97 536.572 562.342 535.659 560.631 534.716C560.009 534.376 559.372 534.024 558.752 533.655C556.376 529.519 553.94 525.434 551.435 521.416C550.919 519.655 550.397 518.047 549.674 516.828C549.023 515.731 547.995 514.953 546.839 514.243C546.439 513.636 546.037 513.033 545.632 512.428C543.03 508.539 540.352 504.723 537.598 501.03C536.696 498.387 535.691 495.669 534.189 492.645C534.161 492.592 534.058 492.445 534.032 492.392C533.558 491.397 533.047 490.375 532.489 489.318C531.473 487.391 530.647 485.287 529.885 483.325C528.741 480.397 527.676 477.678 525.986 475.688C524.863 474.37 524.26 472.677 523.625 470.941C522.793 468.647 521.944 466.339 519.911 465.076C518.642 464.296 517.283 463.644 516.043 463.074C514.07 462.168 512.336 461.371 511.492 460.194C509.919 458.004 507.897 456.473 506.14 455.176C504.007 453.585 502.235 452.298 501.896 450.317C501.845 450.018 501.807 449.664 501.765 449.264C501.545 447.161 501.167 443.762 497.994 440.703C496.868 439.621 495.376 438.891 493.922 438.196C491.802 437.18 489.745 436.212 488.913 434.196C488.788 433.895 488.849 433.444 488.904 433.032C488.974 432.509 489.034 432.051 488.695 432.051C487.699 432.05 486.435 431.824 485.061 431.587C484.052 431.412 482.982 431.23 481.918 431.121C478.324 426.977 474.69 422.875 471.017 418.795C469.328 416.919 467.636 415.056 465.94 413.2C466.1 411.443 466.116 409.707 465.9 408.111C465.606 406.013 464.372 403.952 462.764 401.301C461.583 399.353 460.18 397.062 458.816 394.233C456.258 388.955 452.204 384.656 449.197 382.292C448.56 381.79 447.909 381.289 447.206 380.752C444.959 379.045 442.24 376.988 437.876 373.181C437.107 372.509 436.281 371.771 435.386 370.952C429.742 365.796 425.489 361.091 422.302 357.566C420.669 355.758 419.335 354.272 418.223 353.161C416.364 351.311 414.114 348.945 411.875 346.588C408.377 342.906 404.859 339.193 402.673 337.267C401.897 336.584 401.057 335.883 400.148 335.122C397.64 333.025 394.616 330.497 390.88 326.652C386.969 322.63 384.972 319.78 383.156 316.613C382.418 315.326 382.379 313.676 382.34 311.974C382.286 309.56 382.226 307.038 380.15 305.311C379.666 304.908 379.051 304.562 378.407 304.201C377.224 303.536 375.947 302.824 375.206 301.606C374.948 301.181 374.882 300.671 374.816 300.171C374.744 299.621 374.673 299.082 374.35 298.678C373.148 297.174 371.867 295.784 370.736 294.563C369.281 292.991 368.045 291.661 367.502 290.659C366.536 288.874 364.804 287.475 363.063 286.086C361.74 285.031 360.375 283.943 359.34 282.682C356.366 279.056 351.541 274.754 346.201 270.771C344.16 269.242 343.243 267.308 341.994 264.776C341.239 263.224 340.35 261.433 339.047 259.458C338.321 258.353 337.104 257.918 336.011 257.552C334.995 257.207 334.084 256.921 333.621 256.092C333.216 255.363 333.542 254.332 333.85 253.35C334.194 252.258 334.513 251.229 333.796 250.781C333.415 250.542 332.679 250.49 331.822 250.449C331.483 250.433 331.123 250.414 330.755 250.386C330.901 250.256 331.025 250.134 331.117 250.04C331.768 249.374 331.504 248.431 331.25 247.52C331.221 247.415 331.192 247.31 331.164 247.206C331.079 246.934 331.004 246.667 330.961 246.413C330.741 245.096 329.378 243.608 328.255 242.582C327.779 242.147 327.559 241.536 327.304 240.825C327.084 240.2 326.806 239.466 326.307 238.718C326.022 238.29 325.931 237.83 325.857 237.447C325.803 237.171 325.758 236.935 325.653 236.784C325.561 236.653 325.285 236.758 324.975 236.878C324.752 236.964 324.51 237.057 324.306 237.073C323.818 237.113 323.44 236.905 323.309 236.618C323.249 236.486 323.244 236.337 323.238 236.189C323.232 236.017 323.227 235.845 323.134 235.698C322.707 235.022 321.961 234.732 321.16 234.406C320.287 234.056 319.38 233.692 318.837 232.805C318.666 232.526 318.556 232.153 318.45 231.792C318.339 231.415 318.23 231.049 318.062 230.82C317.379 229.89 316.144 229.638 314.995 229.396C314.234 229.237 313.518 229.089 313.038 228.758C312.16 228.151 311.202 228.348 310.496 228.494C310.13 228.569 309.83 228.633 309.645 228.562C309.537 228.431 309.431 228.295 309.329 228.16C309.258 228.013 309.185 227.861 309.063 227.773C309.054 227.767 309.044 227.762 309.035 227.755C308.48 226.969 307.982 226.127 307.498 225.298C306.4 223.43 305.36 221.629 303.522 220.393C303.13 220.131 302.558 220.051 301.978 219.971C301.266 219.873 300.54 219.774 300.113 219.339C299.102 218.308 298.371 216.897 297.662 215.52C296.594 213.448 295.562 211.443 293.515 210.756C292.843 210.533 292.057 210.463 291.268 210.396C290.828 210.359 290.386 210.324 289.965 210.261C290.314 209.987 290.618 209.709 290.902 209.449C291.487 208.915 291.989 208.458 292.627 208.261C294.135 207.795 296.072 207.031 296.908 205.953C297.135 205.661 297.428 205.371 297.724 205.08C298.467 204.351 299.226 203.606 298.984 202.741C298.821 202.157 298.342 200.726 297.193 200.762C296.943 200.77 296.631 200.951 296.283 201.152C295.659 201.512 294.919 201.938 294.201 201.549C294.08 201.483 293.953 201.407 293.823 201.327C293.306 201.007 292.729 200.65 292.176 200.895C291.539 201.177 291.101 201.761 290.591 202.44C289.926 203.326 289.134 204.377 287.625 205.148C287.326 205.3 287.082 205.226 286.897 205.17C286.767 205.131 286.666 205.103 286.597 205.166C286.517 205.24 286.397 205.434 286.246 205.68C285.712 206.547 284.774 208.057 283.772 207.266C283.501 207.051 283.264 206.73 283.047 206.437C282.726 206.004 282.46 205.647 282.226 205.823C282.138 205.89 282.048 205.968 281.957 206.051C281.667 205.748 281.377 205.446 281.087 205.144C280.911 204.535 280.329 204.061 279.603 203.475C279.427 203.333 279.242 203.182 279.053 203.023C278.488 202.435 277.909 201.836 277.336 201.243C276.939 200.705 276.57 200.073 276.263 199.312C275.649 197.787 275.496 196.023 275.329 194.286C275.261 193.555 275.192 192.83 275.089 192.135C275.283 192.226 275.468 192.296 275.637 192.319C276.795 192.475 277.906 191.789 278.929 191.157C279.609 190.737 280.252 190.342 280.842 190.238C281.919 190.044 282.516 189.247 282.956 188.657C283.185 188.352 283.373 188.102 283.564 188.022C283.717 187.958 283.893 188.017 284.075 188.079C284.234 188.132 284.398 188.187 284.554 188.163C286.447 187.877 286.717 186.995 287.106 185.708C287.32 184.998 287.573 184.166 288.154 183.243C288.794 182.287 289.047 182.064 289.843 182.15C289.823 181.388 289.802 180.625 289.781 179.863C289.604 179.759 289.256 179.925 288.711 180.229C287.736 180.771 286.535 180.246 285.598 179.84C285.164 179.652 284.787 179.489 284.514 179.468C283.063 179.355 282.557 180.484 282.109 181.475C281.862 182.021 281.633 182.525 281.278 182.761C281.126 182.861 281.068 183.041 281.009 183.223C280.963 183.364 280.917 183.507 280.826 183.618C280.163 184.421 279.136 184.562 278.185 184.697C277.64 184.774 277.119 184.85 276.702 185.042C276.576 185.101 276.456 185.169 276.342 185.236C276.175 185.335 276.014 185.428 275.843 185.479C275.453 185.595 274.954 185.475 274.409 185.343C274.129 185.275 273.837 185.205 273.542 185.162C273.158 185.108 272.803 185.347 272.431 185.597C272.168 185.773 271.896 185.954 271.601 186.043C271.066 186.203 270.483 185.936 269.942 185.688C269.707 185.581 269.478 185.478 269.266 185.415C269.179 185.389 269.104 185.418 269.035 185.487C268.101 185.135 267.194 184.816 266.311 184.511C261.887 182.986 258.075 181.712 254.289 177.41C253.572 176.596 252.646 175.919 251.639 175.33C248.971 172.729 246.29 170.143 243.583 167.566C243.562 166.377 243.316 165.207 242.83 164.074C241.912 161.942 240.402 160.518 238.603 158.843C237.266 157.6 235.792 156.235 234.263 154.34C231.689 151.153 228.894 148.057 225.404 145.074C221.903 142.085 217.757 138.878 214.74 136.738C213.077 135.557 211.778 133.704 210.54 131.968C208.785 129.518 207.216 127.343 205.159 127.723C204.501 127.845 203.676 128.259 202.874 128.661C202.303 128.947 201.743 129.225 201.261 129.392C200.609 128.832 199.969 128.282 199.332 127.732C198.591 126.139 197.157 124.034 194.671 123.737C194.013 123.173 193.349 122.608 192.707 122.055C191.307 120.863 189.892 119.663 188.509 118.486C188.059 118.102 187.603 117.713 187.143 117.323C187.139 117.319 187.135 117.315 187.13 117.311C186.205 116.526 185.265 115.732 184.334 114.944C183.935 114.607 183.531 114.267 183.135 113.932C182.144 113.092 181.137 112.243 180.14 111.4C179.613 110.954 179.077 110.504 178.538 110.051C177.661 109.314 176.78 108.575 175.926 107.852C174.532 106.677 173.13 105.496 171.707 104.305C171.475 104.11 171.307 103.827 171.245 103.513C171.185 103.198 171.234 102.877 171.392 102.61C171.549 102.342 171.807 102.143 172.112 102.044C172.416 101.946 172.743 101.959 173.026 102.069C174.758 102.744 176.47 103.414 178.17 104.085C179.215 104.496 180.286 104.923 181.352 105.353C182.008 105.616 182.658 105.88 183.302 106.139C184.518 106.629 185.746 107.129 186.954 107.623C187.437 107.822 187.927 108.025 188.412 108.225C189.549 108.695 190.694 109.175 191.825 109.648C191.831 109.651 191.838 109.654 191.845 109.657C192.401 109.89 192.954 110.122 193.5 110.35C195.188 111.061 196.908 111.801 198.612 112.54C199.5 112.919 200.41 113.317 201.322 113.716C201.837 113.943 202.351 114.169 202.854 114.39C203.128 114.512 203.406 114.636 203.684 114.761C210.032 117.565 216.386 120.502 222.681 123.555C228.947 126.588 235.239 129.792 241.414 133.087C247.606 136.394 253.744 139.836 259.818 143.415C295.81 164.511 329.057 190.384 360.307 216.918C362.768 219.024 365.2 221.18 367.605 223.369C372.511 227.827 377.329 232.46 381.929 237.03C386.575 241.652 391.018 246.224 395.477 250.951C396.829 252.381 398.219 253.868 399.618 255.378Z" fill="#A7C7EB"/>
<path d="M309.612 402.905C315.652 398.577 324.3 398.98 330.648 395.062C338.521 390.203 344.078 381.257 352.447 377.102C352.685 376.984 352.923 376.866 353.161 376.749C359.214 374.018 364.796 370.941 370.249 366.844C375.858 362.646 381.332 357.221 386.666 350.613C390.689 345.655 394.626 340.089 398.573 334.265L397.925 337.042C398.637 335.687 399.232 333.957 399.708 332.043C400.637 328.335 401.116 324.008 401.67 319.354C401.918 317.304 402.193 315.106 402.641 312.921C403.276 309.763 404.278 306.794 405.442 304.06C406.312 302.011 407.264 300.061 408.257 298.145C408.396 297.879 408.762 297.684 409.293 297.596C409.825 297.51 410.473 297.542 411.114 297.693C411.757 297.843 412.352 298.102 412.791 298.408C413.228 298.716 413.471 299.039 413.482 299.327C413.557 301.408 413.69 303.456 413.927 305.415C414.189 307.594 414.592 309.63 415.169 311.507C412.463 311.789 410.407 312.265 409.535 313.202C409.091 313.677 408.939 314.378 409.479 314.835C409.964 315.246 410.797 315.506 411.591 315.74C412.421 315.986 413.211 316.207 413.522 316.566C413.865 316.965 414.498 317.313 415.251 317.654C415.659 317.836 416.104 318.02 416.555 318.203C417.023 318.393 417.5 318.588 417.955 318.794C418.782 320.846 419.64 323.024 420.444 325.352C420.26 326.307 420.114 327.192 420.289 327.925C420.447 328.583 421.064 329.158 421.816 329.747C421.924 330.141 422.031 330.54 422.134 330.944C422.793 333.554 423.329 336.382 423.528 339.554C423.49 339.646 423.451 339.739 423.413 339.832C423.22 340.48 423.008 342.448 422.667 343.032C421.434 344.398 420.195 345.857 419.09 347.933C418.593 348.864 417.856 349.69 417.143 350.481C416.09 351.648 415.09 352.737 414.984 354.015C414.912 354.87 414.227 355.517 413.539 356.16C412.616 357.021 411.69 357.863 412.212 359.245C412.541 360.114 413.012 361.002 413.443 361.83C414.131 363.146 414.715 364.317 414.461 365.011C413.986 366.31 414.218 367.767 414.403 369.069C414.626 370.633 414.779 371.974 413.597 372.438C413.417 372.509 413.192 372.578 412.937 372.654C411.585 373.061 409.458 373.647 409.048 376.044C408.9 376.901 409.19 377.975 409.46 379.042C409.853 380.591 410.193 382.136 409.124 382.849C408.964 382.956 408.602 382.937 408.272 382.917C407.853 382.893 407.487 382.869 407.654 383.114C408.142 383.833 408.59 384.761 409.064 385.783C409.411 386.533 409.773 387.335 410.177 388.136C408.692 391.003 407.04 393.84 405.216 396.611C404.384 397.877 403.512 399.135 402.609 400.371C401.187 400.118 399.856 399.932 398.694 399.942C397.172 399.956 395.983 400.688 394.412 401.591C393.263 402.249 391.901 403.003 390.111 403.559C386.792 404.599 384.497 406.779 383.258 408.62C383.001 409.007 382.744 409.404 382.467 409.83C381.463 411.352 380.241 413.228 377.459 416.019C377.322 416.17 377.181 416.324 377.035 416.481C374.681 419.013 372.382 420.716 370.66 421.993C369.777 422.646 369.043 423.187 368.53 423.673C367.65 424.505 366.523 425.459 365.385 426.419C363.62 427.912 361.829 429.422 360.955 430.497C360.645 430.879 360.336 431.305 360 431.765C359.071 433.036 357.934 434.58 356.085 436.209C354.138 437.924 352.63 438.509 350.894 438.829C350.187 438.96 349.141 438.394 348.062 437.809C346.53 436.978 344.935 436.109 344.147 437.15C343.963 437.393 343.834 437.762 343.699 438.148C343.451 438.858 343.184 439.627 342.514 439.775C342.281 439.827 341.965 439.693 341.654 439.562C341.313 439.418 340.979 439.278 340.769 439.388C339.982 439.802 339.283 440.315 338.662 440.772C337.861 441.361 337.187 441.854 336.619 441.917C335.606 442.029 334.958 442.887 334.299 443.76C333.797 444.426 333.289 445.102 332.61 445.452C330.673 446.451 328.513 448.653 326.534 451.322C325.785 452.332 324.606 452.303 323.095 452.263C322.156 452.239 321.088 452.207 319.914 452.423C319.249 452.546 319.091 453.312 318.943 454.02C318.807 454.672 318.68 455.276 318.178 455.286C317.734 455.294 317.027 454.601 316.356 453.943C315.609 453.211 314.906 452.521 314.659 452.89C314.528 453.086 314.556 453.632 314.588 454.28C314.601 454.537 314.614 454.809 314.618 455.083C314.523 454.913 314.434 454.763 314.365 454.651C313.881 453.855 313.275 453.651 312.681 453.45C312.443 453.37 312.208 453.292 311.983 453.176C311.155 452.749 310.304 453.115 309.725 453.511C309.479 453.679 309.099 453.572 308.656 453.447C308.263 453.336 307.819 453.211 307.375 453.251C307.122 453.274 306.832 453.134 306.591 453.017C306.417 452.932 306.268 452.86 306.179 452.871C306.101 452.882 306.19 453.14 306.291 453.431C306.363 453.64 306.441 453.867 306.467 454.03C306.529 454.42 306.422 454.614 306.246 454.583C306.165 454.569 306.069 454.506 305.974 454.443C305.862 454.37 305.751 454.295 305.663 454.299C305.256 454.319 305.117 454.76 304.972 455.217C304.812 455.721 304.645 456.245 304.11 456.253C303.942 456.256 303.709 456.17 303.483 456.086C303.247 455.999 303.017 455.914 302.88 455.938C302.324 456.034 302.246 456.86 302.174 457.619C302.126 458.124 302.081 458.6 301.9 458.812C301.567 459.201 301.758 460.02 301.899 460.624C301.972 460.937 302.032 461.194 301.998 461.304C301.92 461.325 301.838 461.343 301.757 461.359C301.666 461.345 301.571 461.332 301.522 461.384C301.518 461.388 301.516 461.394 301.512 461.398C301.039 461.457 300.531 461.443 300.026 461.427C298.892 461.393 297.772 461.358 297.097 462.165C296.952 462.339 296.935 462.735 296.918 463.136C296.897 463.629 296.875 464.132 296.615 464.253C295.998 464.541 295.131 464.427 294.278 464.314C292.995 464.144 291.743 463.977 291.409 465.185C291.299 465.584 291.292 466.143 291.286 466.705C291.283 467.018 291.28 467.334 291.258 467.621C291.064 467.228 290.869 466.866 290.687 466.529C290.313 465.834 289.993 465.239 289.835 464.665C289.461 463.308 288.868 461.489 288.127 460.346C287.926 460.036 287.724 459.678 287.521 459.317C287.011 458.411 286.49 457.486 285.944 457.254C285.576 457.097 284.676 456.771 284.755 457.65C284.772 457.841 284.905 458.162 285.052 458.518C285.316 459.159 285.629 459.917 285.414 460.266C285.377 460.325 285.335 460.384 285.289 460.442C285.108 460.675 284.905 460.933 285.089 461.465C285.301 462.078 285.698 462.687 286.161 463.397C286.764 464.323 287.481 465.421 288.047 466.924C288.158 467.221 288.12 467.368 288.092 467.48C288.072 467.559 288.058 467.621 288.102 467.703C288.153 467.799 288.284 467.982 288.45 468.214C289.035 469.032 290.057 470.462 289.581 470.833C289.452 470.933 289.251 470.957 289.069 470.977C288.802 471.007 288.581 471.033 288.704 471.293C288.751 471.392 288.806 471.497 288.863 471.604C288.678 471.675 288.494 471.745 288.308 471.815C287.917 471.651 287.63 471.856 287.273 472.113C287.186 472.176 287.094 472.241 286.996 472.305C286.629 472.441 286.261 472.578 285.894 472.713C285.557 472.745 285.157 472.708 284.671 472.561C283.697 472.267 282.552 471.507 281.433 470.763C280.961 470.45 280.492 470.139 280.044 469.868C280.098 469.77 280.138 469.668 280.149 469.554C280.22 468.776 279.742 467.613 279.301 466.542C279.008 465.83 278.732 465.158 278.646 464.671C278.487 463.777 277.952 462.94 277.557 462.32C277.352 461.999 277.184 461.736 277.126 461.555C277.08 461.409 277.112 461.309 277.145 461.205C277.174 461.114 277.204 461.02 277.183 460.893C276.932 459.351 276.352 458.714 275.51 457.786C275.045 457.274 274.501 456.673 273.886 455.783C273.248 454.834 273.096 454.536 273.12 453.992C272.632 453.626 272.144 453.26 271.656 452.894C271.596 452.972 271.717 453.311 271.933 453.864C272.318 454.852 272.027 455.47 271.798 455.953C271.692 456.177 271.6 456.372 271.595 456.562C271.569 457.569 272.309 458.512 272.96 459.341C273.319 459.797 273.651 460.22 273.813 460.6C273.882 460.762 273.999 460.895 274.118 461.031C274.211 461.135 274.304 461.242 274.379 461.364C274.916 462.256 275.036 463.083 275.148 463.851C275.212 464.291 275.274 464.712 275.409 465.115C275.451 465.238 275.498 465.36 275.544 465.478C275.612 465.651 275.676 465.816 275.714 465.967C275.799 466.312 275.733 466.618 275.661 466.951C275.624 467.122 275.586 467.301 275.565 467.496C275.538 467.75 275.7 468.132 275.87 468.532C275.989 468.814 276.112 469.105 276.175 469.367C276.29 469.842 276.128 470.133 275.977 470.404C275.912 470.522 275.849 470.637 275.812 470.76C275.797 470.811 275.817 470.881 275.863 470.967C275.651 471.47 275.459 471.97 275.272 472.459C274.331 474.912 273.529 477.03 270.713 477.49C270.181 477.576 269.736 477.882 269.344 478.291C267.638 478.816 265.918 479.331 264.194 479.833C263.425 479.195 262.665 478.725 261.924 478.441C260.534 477.905 259.577 478.173 258.445 478.49C257.608 478.723 256.678 478.981 255.412 478.958C253.285 478.917 251.183 479.054 249.116 479.68C247.043 480.312 244.774 481.193 243.228 481.923C242.381 482.324 241.116 482.074 239.942 481.839C238.29 481.508 236.812 481.207 236.894 482.798C236.921 483.306 237.118 484.103 237.309 484.878C237.445 485.43 237.577 485.969 237.644 486.388C237.246 486.469 236.848 486.551 236.45 486.63C235.386 486.134 233.968 485.755 233.571 487.188C233.158 487.268 232.744 487.347 232.343 487.418C231.472 487.583 230.618 487.734 229.758 487.885C229.478 487.933 229.193 487.983 228.905 488.033C228.903 488.034 228.9 488.034 228.897 488.034C228.319 488.136 227.738 488.237 227.166 488.332C226.921 488.372 226.677 488.413 226.432 488.454C225.811 488.557 225.186 488.66 224.572 488.755C224.246 488.804 223.918 488.857 223.584 488.909C223.045 488.994 222.503 489.078 221.964 489.16C221.092 489.291 220.225 489.415 219.358 489.535C219.216 489.554 219.027 489.476 218.83 489.309C218.633 489.142 218.443 488.902 218.297 488.628C218.15 488.354 218.054 488.063 218.024 487.807C217.994 487.552 218.034 487.355 218.129 487.248C218.709 486.599 219.292 485.951 219.88 485.302C220.243 484.9 220.609 484.496 220.973 484.095C221.199 483.848 221.422 483.604 221.64 483.362C222.053 482.904 222.477 482.44 222.899 481.98C223.065 481.798 223.23 481.617 223.396 481.435C223.785 481.01 224.183 480.581 224.578 480.154C224.58 480.151 224.583 480.149 224.585 480.146C224.78 479.936 224.973 479.726 225.161 479.52C225.747 478.885 226.328 478.254 226.928 477.616C227.235 477.28 227.56 476.939 227.882 476.597C228.061 476.406 228.239 476.215 228.415 476.027C228.512 475.925 228.607 475.824 228.705 475.722C230.927 473.351 233.151 471.008 235.41 468.679C237.65 466.361 239.917 464.058 242.172 461.792C244.446 459.515 246.717 457.272 248.998 455.051C263.504 440.936 278.278 427.334 293.819 414.887C296.035 413.109 298.329 411.322 300.584 409.595C302.862 407.855 305.113 406.167 307.435 404.477C308.14 403.961 308.866 403.438 309.612 402.905Z" fill="#A7C7EB"/>
</svg>
