<svg width="482" height="479" viewBox="0 0 482 479" fill="none" xmlns="http://www.w3.org/2000/svg">
<path d="M291.477 25.482C327.467 -16.3208 395.206 19.3555 381.095 72.6813C372.536 105.027 396.829 136.93 430.273 137.933C484.712 139.566 501.919 213.249 452.804 236.787L441.607 242.153C412.749 255.983 403.129 292.359 421.376 318.647L429.09 329.76C459.909 374.161 410.892 430.257 362.76 405.67L354.795 401.601C325.717 386.747 290.306 402.074 281.234 433.44L279.065 440.941C263.895 493.39 188.315 489.472 178.65 435.735C172.703 402.667 137.256 383.998 106.624 397.801C56.8449 420.231 10.8577 360.124 45.5258 317.944L50.484 311.911C71.2167 286.686 63.8233 248.816 35.1254 233.241L27.2646 228.975C-20.2391 203.194 -1.71105 131.04 52.3368 131.336L65.8643 131.41C97.8645 131.586 122.418 103.074 117.497 71.4543L115.588 59.1856C107.213 5.36963 177.707 -22.1247 209.85 21.8425C229.597 48.8534 269.646 50.8384 291.477 25.482Z" fill="#FD5A5A"/>
</svg>
