<?xml version="1.0" encoding="UTF-8"?>
<svg id="Layer_1" xmlns="http://www.w3.org/2000/svg" version="1.1" xmlns:xlink="http://www.w3.org/1999/xlink" viewBox="0 0 92.4 92.4">
  <!-- Generator: Adobe Illustrator 29.5.0, SVG Export Plug-In . SVG Version: 2.1.0 Build 137)  -->
  <defs>
    <style>
      .st0 {
        fill: url(#linear-gradient1);
      }

      .st1 {
        fill: url(#linear-gradient);
      }
    </style>
    <linearGradient id="linear-gradient" x1="0" y1="46.2" x2="92.4" y2="46.2" gradientUnits="userSpaceOnUse">
      <stop offset="0" stop-color="#29f7ff"/>
      <stop offset="0" stop-color="#46e1ff"/>
      <stop offset=".3" stop-color="#79bdff"/>
      <stop offset=".4" stop-color="#a29fff"/>
      <stop offset=".6" stop-color="#c388ff"/>
      <stop offset=".7" stop-color="#da77ff"/>
      <stop offset=".9" stop-color="#e86dff"/>
      <stop offset="1" stop-color="#ed6aff"/>
    </linearGradient>
    <linearGradient id="linear-gradient1" x1="0" y1="71.5" x2="14.4" y2="71.5" xlink:href="#linear-gradient"/>
  </defs>
  <path class="st1" d="M46.2,13.8c4.6,15.5,16.9,27.8,32.4,32.4-15.5,4.6-27.8,16.9-32.4,32.4-4.6-15.5-16.9-27.8-32.4-32.4,15.5-4.6,27.8-16.9,32.4-32.4M46.2,0h0c0,25.5-20.7,46.2-46.2,46.2h0c25.5,0,46.2,20.7,46.2,46.2h0c0-25.5,20.7-46.2,46.2-46.2h0C66.9,46.2,46.2,25.5,46.2,0h0Z"/>
  <path class="st0" d="M7.2,78.7h0c0-4-3.2-7.2-7.2-7.2H0c4,0,7.2-3.2,7.2-7.2h0c0,4,3.2,7.2,7.2,7.2h0c-4,0-7.2,3.2-7.2,7.2Z"/>
</svg>