<svg width="632" height="631" viewBox="0 0 632 631" fill="none" xmlns="http://www.w3.org/2000/svg">
<path d="M257.626 43.0622C275.291 -14.354 356.567 -14.3541 374.232 43.0621L415.218 176.28C421.197 195.713 436.465 210.889 455.934 216.751L588.445 256.651C646.329 274.08 646.329 356.042 588.445 373.471L455.934 413.371C436.465 419.233 421.197 434.409 415.218 453.842L374.232 587.06C356.567 644.476 275.291 644.476 257.626 587.06L216.64 453.842C210.661 434.409 195.393 419.233 175.924 413.371L43.4125 373.471C-14.4709 356.042 -14.4709 274.08 43.4125 256.651L175.924 216.751C195.393 210.889 210.661 195.713 216.64 176.28L257.626 43.0622Z" fill="url(#paint0_linear_40_2)"/>
<defs>
<linearGradient id="paint0_linear_40_2" x1="62.4289" y1="-90.439" x2="495.929" y2="476.061" gradientUnits="userSpaceOnUse">
<stop stop-color="#F9C023"/>
<stop offset="1" stop-color="#F9A0A0"/>
</linearGradient>
</defs>
</svg>
